 <svg
              width="100%"
              height="44"
              viewBox="0 0 250 44"
              fill="none"
              role="img"
              xmlns="http://www.w3.org/2000/svg"
            >
              <g clip-path="url(#clip0_2105_47100)">
                <path
                  d="M214.783 21.6879V43.3369H217.744H220.704V28.4908C220.704 18.5323 220.716 13.6486 220.743 13.6603C220.766 13.6681 227.194 20.4904 235.035 28.8262L249.284 43.9805L249.625 43.9922L249.961 44.0039V22.3511V0.702106H247.001H244.04V15.5872C244.04 23.7748 244.025 30.4645 244.009 30.4567C243.99 30.4489 237.554 23.6032 229.706 15.2401L215.437 0.0389852H215.108H214.783V21.6879Z"
                  fill="white"
                />
                <path
                  d="M0.0385742 22.0195V43.3369H3.09585H6.15312V33.8387V24.3405H17.318H28.4828V33.8387V43.3369H31.5208H34.5587V22.0195V0.702164H31.5208H28.4828V9.84933V18.9965L17.3296 18.9887L6.17247 18.977L6.16086 9.83762L6.15312 0.702164H3.09585H0.0385742V22.0195Z"
                  fill="white"
                />
                <path
                  d="M70.1626 0.725568C70.1626 0.73727 73.5333 5.05926 77.651 10.3291L85.1394 19.9132V31.6231V43.3369H88.6417H92.144V31.077V18.8132L84.9614 9.75961L77.7787 0.702164H73.9706C71.877 0.702164 70.1626 0.713866 70.1626 0.725568Z"
                  fill="white"
                />
                <path
                  d="M141.95 22.0196V43.3408L148.425 43.3252C154.907 43.3096 155.17 43.3057 156.946 43.1614C166.126 42.4125 172.028 39.05 175.015 32.8635C176.582 29.622 177.31 25.694 177.233 20.8688C177.206 19.371 177.178 18.8561 177.047 17.6508C176.455 12.1976 174.462 8.07452 171.091 5.34793C167.891 2.75395 163.576 1.3419 157.43 0.881614C155.553 0.737288 155.151 0.729487 148.56 0.713884L141.95 0.698281V22.0196ZM154.74 5.96424C159.082 6.20998 161.958 6.838 164.338 8.05502C165.085 8.43729 165.549 8.72204 166.137 9.17062C168.974 11.3277 170.472 14.5029 170.897 19.25C170.967 20.0068 170.99 22.1639 170.94 23.0337C170.716 26.9539 169.791 29.8795 168.026 32.255C167.562 32.8791 166.59 33.8816 165.987 34.3653C163.506 36.3351 160.116 37.4937 155.65 37.8954C154.187 38.0242 153.467 38.0476 150.754 38.0515H148.007L147.995 22.0196C147.991 13.2001 147.995 5.96424 148.007 5.93303C148.026 5.88622 148.49 5.88232 151.037 5.90183C152.689 5.91353 154.357 5.94473 154.74 5.96424Z"
                  fill="white"
                />
              </g>
              <defs>
                <clipPath id="clip0_2105_47100">
                  <rect width="250" height="44" fill="white" />
                </clipPath>
              </defs>
            </svg>